HIERARCHY
ROOT Hips
{
  OFFSET -469.55 93.222 672.059
  CHANNELS 6 Xposition Yposition Zposition Zrotation Xrotation Yrotation
  JOINT Spine
  {
    OFFSET 1.77624e-05 8 -1.45767e-05
    CHANNELS 6 Xposition Yposition Zposition Zrotation Xrotation Yrotation
    JOINT Spine1
    {
      OFFSET -4.82571e-05 8 3.44203e-05
      CHANNELS 6 Xposition Yposition Zposition Zrotation Xrotation Yrotation
      JOINT Spine2
      {
        OFFSET 2.63503e-05 8 -2.80109e-05
        CHANNELS 6 Xposition Yposition Zposition Zrotation Xrotation Yrotation
        JOINT Spine3
        {
          OFFSET 0 8 0
          CHANNELS 6 Xposition Yposition Zposition Zrotation Xrotation Yrotation
          JOINT Neck
          {
            OFFSET 4.75079e-05 17 0.000112686
            CHANNELS 6 Xposition Yposition Zposition Zrotation Xrotation Yrotation
            JOINT Head
            {
              OFFSET 0 10.8 1.141e-05
              CHANNELS 6 Xposition Yposition Zposition Zrotation Xrotation Yrotation
              End Site
              {
                OFFSET 0 20.25 0
              }
            }
          }
          JOINT LeftShoulder
          {
            OFFSET 5.00003 17 8.74177e-05
            CHANNELS 6 Xposition Yposition Zposition Zrotation Xrotation Yrotation
            JOINT LeftShoulder2
            {
              OFFSET 6.45 0 0
              CHANNELS 6 Xposition Yposition Zposition Zrotation Xrotation Yrotation
              JOINT LeftArm
              {
                OFFSET 6.44999 -0.000322998 0.000217968
                CHANNELS 6 Xposition Yposition Zposition Zrotation Xrotation Yrotation
                JOINT LeftForeArm
                {
                  OFFSET -4.67178e-05 -32.4 -1.99747
                  CHANNELS 6 Xposition Yposition Zposition Zrotation Xrotation Yrotation
                  JOINT LeftHand
                  {
                    OFFSET 3.84226e-05 -25.65 2.00001
                    CHANNELS 6 Xposition Yposition Zposition Zrotation Xrotation Yrotation
                    JOINT LeftHandThumb1
                    {
                      OFFSET -0.500005 -1.49996 2.64997
                      CHANNELS 6 Xposition Yposition Zposition Zrotation Xrotation Yrotation
                      JOINT LeftHandThumb2
                      {
                        OFFSET 1.35018e-05 -3.80003 3.70006
                        CHANNELS 6 Xposition Yposition Zposition Zrotation Xrotation Yrotation
                        JOINT LeftHandThumb3
                        {
                          OFFSET 0 -2.99998 2.69993
                          CHANNELS 6 Xposition Yposition Zposition Zrotation Xrotation Yrotation
                          End Site
                          {
                            OFFSET -2.12895e-05 -2.30003 1.80004
                          }
                        }
                      }
                    }
                    JOINT LeftHandIndex
                    {
                      OFFSET 2.33648e-05 -1.90005 1.59998
                      CHANNELS 6 Xposition Yposition Zposition Zrotation Xrotation Yrotation
                      JOINT LeftHandIndex1
                      {
                        OFFSET 0 -8.29997 1.9
                        CHANNELS 6 Xposition Yposition Zposition Zrotation Xrotation Yrotation
                        JOINT LeftHandIndex2
                        {
                          OFFSET -2.8546e-05 -4.49999 1.30576e-05
                          CHANNELS 6 Xposition Yposition Zposition Zrotation Xrotation Yrotation
                          JOINT LeftHandIndex3
                          {
                            OFFSET -4.93547e-05 -3.4061 -3.6846e-05
                            CHANNELS 6 Xposition Yposition Zposition Zrotation Xrotation Yrotation
                            End Site
                            {
                              OFFSET 0 -2.59993 2.11808e-05
                            }
                          }
                        }
                      }
                    }
                    JOINT LeftHandMiddle
                    {
                      OFFSET -0.250022 -2.20001 0.399974
                      CHANNELS 6 Xposition Yposition Zposition Zrotation Xrotation Yrotation
                      JOINT LeftHandMiddle1
                      {
                        OFFSET 1.68793e-05 -8.29993 1.00001
                        CHANNELS 6 Xposition Yposition Zposition Zrotation Xrotation Yrotation
                        JOINT LeftHandMiddle2
                        {
                          OFFSET 0 -4.65001 1.41169e-05
                          CHANNELS 6 Xposition Yposition Zposition Zrotation Xrotation Yrotation
                          JOINT LeftHandMiddle3
                          {
                            OFFSET -4.10606e-05 -3.30003 0
                            CHANNELS 6 Xposition Yposition Zposition Zrotation Xrotation Yrotation
                            End Site
                            {
                              OFFSET -3.28272e-05 -2.69996 0
                            }
                          }
                        }
                      }
                    }
                    JOINT LeftHandRing
                    {
                      OFFSET -0.499997 -2.15003 -0.800002
                      CHANNELS 6 Xposition Yposition Zposition Zrotation Xrotation Yrotation
                      JOINT LeftHandRing1
                      {
                        OFFSET -2.35791e-05 -7.75001 -0.200004
                        CHANNELS 6 Xposition Yposition Zposition Zrotation Xrotation Yrotation
                        JOINT LeftHandRing2
                        {
                          OFFSET 2.61864e-05 -3.82135 0
                          CHANNELS 6 Xposition Yposition Zposition Zrotation Xrotation Yrotation
                          JOINT LeftHandRing3
                          {
                            OFFSET -1.78515e-05 -3.40001 0
                            CHANNELS 6 Xposition Yposition Zposition Zrotation Xrotation Yrotation
                            End Site
                            {
                              OFFSET -5.56756e-05 -2.60003 -2.39937e-05
                            }
                          }
                        }
                      }
                    }
                    JOINT LeftHandPinky
                    {
                      OFFSET -0.75002 -1.75 -1.85003
                      CHANNELS 6 Xposition Yposition Zposition Zrotation Xrotation Yrotation
                      JOINT LeftHandPinky1
                      {
                        OFFSET 0 -7.15001 -0.999979
                        CHANNELS 6 Xposition Yposition Zposition Zrotation Xrotation Yrotation
                        JOINT LeftHandPinky2
                        {
                          OFFSET -1.59384e-05 -3.00526 -2.6542e-05
                          CHANNELS 6 Xposition Yposition Zposition Zrotation Xrotation Yrotation
                          JOINT LeftHandPinky3
                          {
                            OFFSET 0 -2.35 1.99773e-05
                            CHANNELS 6 Xposition Yposition Zposition Zrotation Xrotation Yrotation
                            End Site
                            {
                              OFFSET -2.98256e-05 -2.10002 0
                            }
                          }
                        }
                      }
                    }
                  }
                }
              }
            }
          }
          JOINT RightShoulder
          {
            OFFSET -4.99998 17 0.00017422
            CHANNELS 6 Xposition Yposition Zposition Zrotation Xrotation Yrotation
            JOINT RightShoulder2
            {
              OFFSET -6.45 0 0
              CHANNELS 6 Xposition Yposition Zposition Zrotation Xrotation Yrotation
              JOINT RightArm
              {
                OFFSET -6.44998 -0.000306721 0.000141589
                CHANNELS 6 Xposition Yposition Zposition Zrotation Xrotation Yrotation
                JOINT RightForeArm
                {
                  OFFSET -5.56066e-05 -32.4 -2.00001
                  CHANNELS 6 Xposition Yposition Zposition Zrotation Xrotation Yrotation
                  JOINT RightHand
                  {
                    OFFSET 4.64659e-05 -25.65 1.99998
                    CHANNELS 6 Xposition Yposition Zposition Zrotation Xrotation Yrotation
                    JOINT RightHandThumb1
                    {
                      OFFSET 0.499987 -1.5 2.65003
                      CHANNELS 6 Xposition Yposition Zposition Zrotation Xrotation Yrotation
                      JOINT RightHandThumb2
                      {
                        OFFSET -3.73878e-05 -3.80006 3.70001
                        CHANNELS 6 Xposition Yposition Zposition Zrotation Xrotation Yrotation
                        JOINT RightHandThumb3
                        {
                          OFFSET -2.95666e-05 -2.99999 2.70001
                          CHANNELS 6 Xposition Yposition Zposition Zrotation Xrotation Yrotation
                          End Site
                          {
                            OFFSET 0 -2.30002 1.8
                          }
                        }
                      }
                    }
                    JOINT RightHandIndex
                    {
                      OFFSET 4.90306e-05 -1.89993 1.60003
                      CHANNELS 6 Xposition Yposition Zposition Zrotation Xrotation Yrotation
                      JOINT RightHandIndex1
                      {
                        OFFSET -3.95114e-05 -8.30006 1.89993
                        CHANNELS 6 Xposition Yposition Zposition Zrotation Xrotation Yrotation
                        JOINT RightHandIndex2
                        {
                          OFFSET -2.13262e-05 -4.49996 6.01433e-05
                          CHANNELS 6 Xposition Yposition Zposition Zrotation Xrotation Yrotation
                          JOINT RightHandIndex3
                          {
                            OFFSET 5.28399e-05 -3.39999 0
                            CHANNELS 6 Xposition Yposition Zposition Zrotation Xrotation Yrotation
                            End Site
                            {
                              OFFSET -4.07957e-05 -2.6 0
                            }
                          }
                        }
                      }
                    }
                    JOINT RightHandMiddle
                    {
                      OFFSET 0.249993 -2.19998 0.400061
                      CHANNELS 6 Xposition Yposition Zposition Zrotation Xrotation Yrotation
                      JOINT RightHandMiddle1
                      {
                        OFFSET 0 -8.29998 0.999988
                        CHANNELS 6 Xposition Yposition Zposition Zrotation Xrotation Yrotation
                        JOINT RightHandMiddle2
                        {
                          OFFSET 0 -4.64998 -5.28986e-05
                          CHANNELS 6 Xposition Yposition Zposition Zrotation Xrotation Yrotation
                          JOINT RightHandMiddle3
                          {
                            OFFSET 4.53477e-05 -3.3 0
                            CHANNELS 6 Xposition Yposition Zposition Zrotation Xrotation Yrotation
                            End Site
                            {
                              OFFSET -5.40678e-05 -2.69992 8.07853e-05
                            }
                          }
                        }
                      }
                    }
                    JOINT RightHandRing
                    {
                      OFFSET 0.499988 -2.15001 -0.79999
                      CHANNELS 6 Xposition Yposition Zposition Zrotation Xrotation Yrotation
                      JOINT RightHandRing1
                      {
                        OFFSET 3.66004e-05 -7.74998 -0.200027
                        CHANNELS 6 Xposition Yposition Zposition Zrotation Xrotation Yrotation
                        JOINT RightHandRing2
                        {
                          OFFSET 0 -3.8 0
                          CHANNELS 6 Xposition Yposition Zposition Zrotation Xrotation Yrotation
                          JOINT RightHandRing3
                          {
                            OFFSET -5.34935e-05 -3.39996 0
                            CHANNELS 6 Xposition Yposition Zposition Zrotation Xrotation Yrotation
                            End Site
                            {
                              OFFSET 0 -2.60001 1.69782e-05
                            }
                          }
                        }
                      }
                    }
                    JOINT RightHandPinky
                    {
                      OFFSET 0.750019 -1.74991 -1.84994
                      CHANNELS 6 Xposition Yposition Zposition Zrotation Xrotation Yrotation
                      JOINT RightHandPinky1
                      {
                        OFFSET -1.8112e-05 -7.15002 -1.00001
                        CHANNELS 6 Xposition Yposition Zposition Zrotation Xrotation Yrotation
                        JOINT RightHandPinky2
                        {
                          OFFSET 0 -3.00001 2.59028e-05
                          CHANNELS 6 Xposition Yposition Zposition Zrotation Xrotation Yrotation
                          JOINT RightHandPinky3
                          {
                            OFFSET -4.12915e-05 -2.35002 0
                            CHANNELS 6 Xposition Yposition Zposition Zrotation Xrotation Yrotation
                            End Site
                            {
                              OFFSET 2.76442e-05 -2.09994 0
                            }
                          }
                        }
                      }
                    }
                  }
                }
              }
            }
          }
        }
      }
    }
  }
  JOINT LeftUpLeg
  {
    OFFSET 8 0 -3.22511e-05
    CHANNELS 6 Xposition Yposition Zposition Zrotation Xrotation Yrotation
    JOINT LeftLeg
    {
      OFFSET 0 -45 -0.999979
      CHANNELS 6 Xposition Yposition Zposition Zrotation Xrotation Yrotation
      JOINT LeftFoot
      {
        OFFSET 2.28471e-05 -41 -2.00004
        CHANNELS 6 Xposition Yposition Zposition Zrotation Xrotation Yrotation
        JOINT LeftToeBase
        {
          OFFSET 1.40799e-05 -7.50001 12.5
          CHANNELS 6 Xposition Yposition Zposition Zrotation Xrotation Yrotation
          JOINT LeftFootToe
          {
            OFFSET 0 0 4
            CHANNELS 6 Xposition Yposition Zposition Zrotation Xrotation Yrotation
            End Site
            {
              OFFSET 0 0 0
            }
          }
        }
      }
    }
  }
  JOINT RightUpLeg
  {
    OFFSET -8 0 3.22511e-05
    CHANNELS 6 Xposition Yposition Zposition Zrotation Xrotation Yrotation
    JOINT RightLeg
    {
      OFFSET 0 -45 -0.999988
      CHANNELS 6 Xposition Yposition Zposition Zrotation Xrotation Yrotation
      JOINT RightFoot
      {
        OFFSET 0 -41 -2.00002
        CHANNELS 6 Xposition Yposition Zposition Zrotation Xrotation Yrotation
        JOINT RightToeBase
        {
          OFFSET 1.31387e-05 -7.5 12.5
          CHANNELS 6 Xposition Yposition Zposition Zrotation Xrotation Yrotation
          JOINT RightFootToe
          {
            OFFSET 0 0 4
            CHANNELS 6 Xposition Yposition Zposition Zrotation Xrotation Yrotation
            End Site
            {
              OFFSET 0 0 0
            }
          }
        }
      }
    }
  }
}
MOTION
Frames:	2
Frame Time:	0.0111111
-446.124 92.78 653.31 0.277346 0.922002 -122.486 -1.54449e-05 8 3.39104e-06 3.50809 1.54495 -1.57924 3.05323e-06 8 -2.13291e-05 -0.718648 0.602588 -0.128176 7.34485e-06 8 3.403e-05 -0.359433 0.301152 -0.0650474 0 8 0 -0.358195 0.302798 -0.0685382 -0.000172248 17 -0.00025595 2.00142 3.75627 13.9349 3.49616e-05 10.8 1.10897e-05 -0.455623 -5.55795 33.1055 4.9998 17 -0.000193509 -7.89122 6.43544 -8.71435 6.45 -5.68434e-14 0 -0.931992 1.11266 0.422908 6.45002 0.000119746 0.000350531 21.2371 -10.8889 36.9791 -4.90135e-06 -32.4 -1.99695 -47.3797 -53.5014 -24.6629 -1.03261e-05 -25.65 2 -11.6174 11.344 33.7061 -0.499992 -1.49998 2.64999 -3.32242 -34.4705 -7.80667 -4.13717e-07 -3.79998 3.70004 -0.0367116 8.25218 0.00151779 3.5402e-07 -3.00004 2.69995 -0.00191852 64.1541 -0.0111681 1.35361e-05 -1.90009 1.59998 1.60222e-05 3.21848e-06 1.39351e-06 6.88047e-06 -8.29995 1.9 -3.71292 -15.5126 -0.40133 -2.07565e-06 -4.49996 -5.41051e-06 -9.52918 -0.00675313 0.2779 -4.28726e-05 -3.4239 2.15166e-05 -7.71211 -0.0395966 0.209705 -0.249993 -2.2 0.4 1.60222e-05 3.21848e-06 1.39351e-06 -1.49941e-05 -8.29998 0.999993 -6.63708 1.4856 0.522086 -2.49054e-09 -4.64997 1.1277e-06 -0.521784 0.0125974 0.0138872 -2.56664e-05 -3.30004 1.15377e-05 -0.467544 0.0106731 0.0132788 -0.500014 -2.15006 -0.800018 1.60222e-05 3.21848e-06 1.39351e-06 -8.50461e-06 -7.75001 -0.199999 -10.0845 14.9964 2.18144 1.00437e-05 -3.84935 9.02652e-07 -1.35907 -0.00441899 -0.0044855 -1.27827e-05 -3.40003 1.35011e-05 -2.53516e-05 -0.000393867 0.00740182 -0.75002 -1.75003 -1.85001 1.60222e-05 3.21848e-06 1.39351e-06 -1.75934e-05 -7.15 -0.999996 -11.97 20.6416 3.1325 1.19021e-05 -3.00609 8.67009e-07 -48.0567 -0.00249884 0.047895 -1.80488e-05 -2.35002 5.30195e-06 -25.3311 -0.0090712 0.0295363 -5.0002 16.9999 -0.000337222 3.971 7.71706 -0.297129 -6.45 0 -5.68434e-14 -1.03697 -0.427054 -2.49844 -6.44999 0.000195905 -0.000384437 -43.874 37.7084 -25.7738 -7.16054e-05 -32.4 -1.99994 61.6091 -56.0194 89.9984 5.84589e-05 -25.65 1.99999 -40.1869 7.74491 14.6182 0.499998 -1.50004 2.65002 -100.413 14.9783 -66.8748 -5.89644e-05 -3.80006 3.70003 0.0923257 45.6706 0.0930492 -8.6633e-06 -3 2.69999 0.357817 67.6534 -0.77435 6.03382e-05 -1.89997 1.6 5.4216e-06 -2.40237e-06 -6.96926e-07 -6.11137e-05 -8.30001 1.89996 2.3865 -12.7754 0.170625 -3.22398e-05 -4.49998 4.85188e-05 13.0226 0.0921781 0.2435 4.50079e-05 -3.39999 -1.6755e-05 10.5893 0.0998073 0.16275 0.249969 -2.19998 0.400045 5.4216e-06 -2.40237e-06 -6.96926e-07 2.38203e-05 -8.29996 0.999989 2.9652 -5.05089 -0.104879 -1.20684e-05 -4.65003 -2.47509e-05 49.1219 0.60236 0.464739 3.49888e-05 -3.29996 -1.01941e-05 32.6331 0.549106 0.0614852 0.499994 -2.15003 -0.799997 5.4216e-06 -2.40237e-06 -6.96926e-07 3.32831e-05 -7.75001 -0.200036 4.96283 8.29933 -0.851098 4.06855e-06 -3.8 1.66202e-05 34.2184 0.518625 0.767512 -2.5278e-05 -3.39995 -9.48401e-06 24.6277 0.493249 0.285898 0.750031 -1.74996 -1.84996 5.4216e-06 -2.40237e-06 -6.96926e-07 -3.73632e-05 -7.15 -0.999996 10.7289 23.7553 -3.4459 -5.09541e-06 -2.99998 2.36568e-05 20.3954 0.188109 0.806159 -1.51668e-05 -2.35003 -1.12032e-05 15.0895 0.281969 0.495931 8.00001 7.23545e-08 -1.02509e-05 22.3819 -25.9387 22.4741 6.78584e-06 -45 -1.00005 -0.05479 3.23799 2.2625 4.7885e-06 -41 -2.00001 1.27443 32.304 -22.3024 -1.91192e-05 -7.5 12.5 -3.42522e-07 1.22846e-06 -1.25368e-07 -1.13687e-13 -1.42109e-14 4 3.05823 -1.49992 50.7129 -8.00001 -7.23545e-08 1.02509e-05 -0.195173 -10.509 -7.3846 8.32895e-06 -45 -1.00001 -0.112291 9.35949 -5.81075 -5.4844e-06 -41 -2.00006 6.73676 1.51262 -8.36533 2.94971e-05 -7.5 12.5 -0.000181004 0.0138578 1.91926e-05 1.13687e-13 0 4 2.57456 1.53867 38.2875 
-446.75 92.8098 653.394 0.258757 0.912659 -123.431 -1.54449e-05 8 3.39104e-06 3.57551 1.58919 -1.20511 3.05323e-06 8 -2.13291e-05 -0.744313 0.636599 0.0199584 7.34485e-06 8 3.403e-05 -0.372059 0.318387 0.00893517 -1.13687e-13 8 0 -0.372313 0.318088 0.00950007 -0.000172248 17 -0.00025595 2.02188 3.7322 14.0476 3.49616e-05 10.8 1.10897e-05 -0.541694 -5.5929 33.3733 4.9998 17 -0.000193509 -7.91396 6.40568 -8.49842 6.45 0 0 -0.932215 1.10723 0.433412 6.45002 0.000119746 0.000350531 21.3573 -10.8958 37.5015 -4.90135e-06 -32.4 -1.99695 -46.8836 -53.8747 -24.1645 -1.03261e-05 -25.65 2 -11.6144 11.4507 34.1248 -0.499992 -1.49998 2.64999 -3.89503 -34.4522 -8.03761 -4.13717e-07 -3.79998 3.70004 -0.0367116 8.25218 0.00151779 3.5402e-07 -3.00004 2.69995 0.00165904 64.8075 -0.0114381 1.35361e-05 -1.90009 1.59998 1.60222e-05 3.21848e-06 1.39351e-06 6.88047e-06 -8.29995 1.9 -3.9186 -15.954 -0.424707 -2.07565e-06 -4.49996 -5.41051e-06 -6.54245 -0.00451398 0.20945 -4.28726e-05 -3.4239 2.15166e-05 -5.43023 -0.0246042 0.163884 -0.249993 -2.2 0.4 1.60222e-05 3.21848e-06 1.39351e-06 -1.49941e-05 -8.29998 0.999993 -7.03652 1.55289 0.558023 -2.49042e-09 -4.64997 1.1277e-06 0.0713663 -0.00262008 -0.00212877 -2.56664e-05 -3.30004 1.15377e-05 0.0609629 -0.0019688 -0.00196144 -0.500014 -2.15006 -0.800018 1.60222e-05 3.21848e-06 1.39351e-06 -8.50461e-06 -7.75001 -0.199999 -11.0939 15.4277 2.41772 1.00437e-05 -3.84935 9.02652e-07 -1.35907 -0.00441899 -0.0044855 -1.27827e-05 -3.40003 1.35011e-05 -2.53221e-05 -0.000440203 0.0104562 -0.75002 -1.75003 -1.85001 1.60222e-05 3.21848e-06 1.39351e-06 -1.75934e-05 -7.15 -0.999996 -13.4248 21.1094 3.52378 1.19021e-05 -3.00609 8.6701e-07 -46.2562 -0.0211683 0.0276658 -1.80488e-05 -2.35002 5.30195e-06 -24.1994 -0.0149378 0.0132823 -5.0002 16.9999 -0.000337222 3.89406 7.76489 -0.0762707 -6.45 2.84217e-14 0 -1.04626 -0.426707 -2.51496 -6.44999 0.000195905 -0.000384437 -43.8332 37.614 -25.7491 -7.16054e-05 -32.4 -1.99994 63.416 -56.1691 91.5973 5.84589e-05 -25.65 1.99999 -41.3964 6.57586 15.0635 0.499998 -1.50004 2.65002 -98.5351 14.8042 -65.9635 -5.89644e-05 -3.80006 3.70003 0.0934751 44.3216 0.0908842 -8.6633e-06 -3 2.69999 0.357817 67.6534 -0.77435 6.03382e-05 -1.89997 1.6 5.4216e-06 -2.40237e-06 -6.96926e-07 -6.11137e-05 -8.30001 1.89996 2.48965 -12.908 0.16966 -3.22397e-05 -4.49998 4.85188e-05 16.0169 0.0995617 0.236993 4.50079e-05 -3.39999 -1.6755e-05 12.7673 0.106869 0.148491 0.249969 -2.19998 0.400045 5.4216e-06 -2.40237e-06 -6.96926e-07 2.38203e-05 -8.29996 0.999989 2.67043 -6.01216 -0.0536415 -1.20684e-05 -4.65003 -2.47509e-05 54.5424 0.651141 0.441016 3.49888e-05 -3.29996 -1.01941e-05 36.7584 0.604772 0.00417164 0.499994 -2.15003 -0.799997 5.4216e-06 -2.40237e-06 -6.96926e-07 3.32831e-05 -7.75001 -0.200036 4.31863 5.97346 -0.53931 4.06855e-06 -3.8 1.66202e-05 38.2987 0.584829 0.783746 -2.5278e-05 -3.39995 -9.48401e-06 27.2284 0.546169 0.265442 0.750031 -1.74996 -1.84996 5.4216e-06 -2.40237e-06 -6.96926e-07 -3.73632e-05 -7.15 -0.999996 11.2517 22.8665 -3.34489 -5.09541e-06 -2.99998 2.36568e-05 25.8208 0.257764 0.845286 -1.51668e-05 -2.35003 -1.12032e-05 18.81 0.346415 0.486742 8.00001 7.23545e-08 -1.02509e-05 22.5557 -23.9996 21.4723 6.78584e-06 -45 -1.00005 0.0875954 -1.41616 2.01393 4.7885e-06 -41 -2.00001 -0.685047 33.4041 -23.0378 -1.91192e-05 -7.5 12.5 -3.42522e-07 1.22846e-06 -1.25368e-07 2.27374e-13 -1.42109e-14 4 3.96396 -1.09838 50.79 -8.00001 -7.23545e-08 1.02509e-05 -0.317051 -10.2338 -6.61426 8.32895e-06 -45 -1.00001 -0.113533 9.27718 -5.76808 -5.4844e-06 -41 -2.00006 7.02466 1.39772 -8.30306 2.94971e-05 -7.5 12.5 -0.000181004 0.0134459 1.91926e-05 0 0 4 2.29938 1.57972 38.29 
